<?xml version="1.0" encoding="UTF-8"?>
<!-- Generator: Apple Native CoreSVG 232.5 -->
<!DOCTYPE svg PUBLIC "-//W3C//DTD SVG 1.1//EN" "http://www.w3.org/Graphics/SVG/1.1/DTD/svg11.dtd">
<svg version="1.1" xmlns="http://www.w3.org/2000/svg" xmlns:xlink="http://www.w3.org/1999/xlink" width="22" height="22">
	<g>
		<rect height="22" opacity="0" width="22" x="0" y="0" />
		<path d="M0 6.25781C0 10.2305 3.23438 14.1211 8.49609 17.4492C8.70703 17.5898 9.02344 17.7305 9.22266 17.7305C9.43359 17.7305 9.73828 17.5898 9.94922 17.4492C15.2109 14.1211 18.4453 10.2305 18.4453 6.25781C18.4453 2.95312 16.1719 0.609375 13.1484 0.609375C11.4141 0.609375 10.0781 1.39453 9.22266 2.58984C8.37891 1.40625 7.03125 0.609375 5.29688 0.609375C2.27344 0.609375 0 2.95312 0 6.25781ZM1.6875 6.25781C1.6875 3.87891 3.22266 2.29688 5.28516 2.29688C7.01953 2.29688 7.95703 3.38672 8.53125 4.21875C8.8125 4.62891 8.98828 4.74609 9.22266 4.74609C9.46875 4.74609 9.60938 4.61719 9.91406 4.21875C10.5352 3.41016 11.4375 2.29688 13.1719 2.29688C15.2344 2.29688 16.7578 3.87891 16.7578 6.25781C16.7578 9.65625 13.1367 13.3711 9.43359 15.832C9.32812 15.9023 9.25781 15.9492 9.22266 15.9492C9.1875 15.9492 9.11719 15.9023 9.02344 15.832C5.30859 13.3711 1.6875 9.65625 1.6875 6.25781Z" />
	</g>
</svg>
