<?xml version="1.0" encoding="UTF-8"?>
<!-- Generator: Apple Native CoreSVG 232.5 -->
<!DOCTYPE svg PUBLIC "-//W3C//DTD SVG 1.1//EN" "http://www.w3.org/Graphics/SVG/1.1/DTD/svg11.dtd">
<svg version="1.1" xmlns="http://www.w3.org/2000/svg" xmlns:xlink="http://www.w3.org/1999/xlink" width="22" height="22" viewBox="-1 -1 22 22">
	<g>
		<rect height="22" opacity="0" width="22" x="0" y="0" />
		<path d="M3.94947 19.5352C4.38307 19.8633 4.91041 19.7344 5.54322 19.2773L10.3128 15.7734L15.094 19.2773C15.7151 19.7344 16.2424 19.8633 16.676 19.5352C17.0979 19.2188 17.1799 18.6797 16.9221 17.9531L15.0354 12.3398L19.8518 8.88281C20.4846 8.44922 20.7542 7.96875 20.5784 7.45312C20.4143 6.96094 19.9221 6.71484 19.1487 6.72656L13.2424 6.77344L11.4495 1.125C11.2151 0.386719 10.8518 0 10.3128 0C9.78541 0 9.42213 0.386719 9.17604 1.125L7.38307 6.77344L1.47682 6.72656C0.703379 6.71484 0.22291 6.96094 0.0471292 7.45312C-0.116933 7.96875 0.152598 8.44922 0.773692 8.88281L5.5901 12.3398L3.70338 17.9531C3.44557 18.6797 3.5276 19.2188 3.94947 19.5352Z" />
	</g>
</svg>
