<?xml version="1.0" encoding="UTF-8"?>
<!-- Generator: Apple Native CoreSVG 232.5 -->
<!DOCTYPE svg PUBLIC "-//W3C//DTD SVG 1.1//EN" "http://www.w3.org/Graphics/SVG/1.1/DTD/svg11.dtd">
<svg version="1.1" xmlns="http://www.w3.org/2000/svg" xmlns:xlink="http://www.w3.org/1999/xlink" width="22" height="22" viewBox="-1 -1 22 22">
	<g>
		<rect height="22" opacity="0" width="22" x="0" y="0" />
		<path d="M3.94947 19.5352C4.38307 19.8633 4.91041 19.7344 5.54322 19.2773L10.3128 15.7734L15.094 19.2773C15.7151 19.7344 16.2424 19.8633 16.676 19.5352C17.0979 19.2188 17.1799 18.6797 16.9221 17.9531L15.0354 12.3398L19.8518 8.88281C20.4846 8.44922 20.7542 7.96875 20.5784 7.45312C20.4143 6.96094 19.9221 6.71484 19.1487 6.72656L13.2424 6.77344L11.4495 1.125C11.2151 0.386719 10.8518 0 10.3128 0C9.78541 0 9.42213 0.386719 9.17604 1.125L7.38307 6.77344L1.47682 6.72656C0.703379 6.71484 0.22291 6.96094 0.0471292 7.45312C-0.116933 7.96875 0.152598 8.44922 0.773692 8.88281L5.5901 12.3398L3.70338 17.9531C3.44557 18.6797 3.5276 19.2188 3.94947 19.5352ZM5.48463 17.4375C5.47291 17.4141 5.47291 17.4023 5.48463 17.3555L7.2776 12.293C7.4065 11.9062 7.33619 11.6016 6.98463 11.3555L2.55494 8.33203C2.51979 8.29688 2.50807 8.28516 2.51979 8.26172C2.5315 8.23828 2.54322 8.23828 2.5901 8.23828L7.95729 8.35547C8.36744 8.36719 8.62525 8.20312 8.75416 7.79297L10.2659 2.64844C10.2776 2.60156 10.2893 2.58984 10.3128 2.58984C10.3362 2.58984 10.3479 2.60156 10.3596 2.64844L11.8713 7.79297C12.0003 8.20312 12.2698 8.36719 12.6799 8.35547L18.0354 8.23828C18.0823 8.23828 18.094 8.23828 18.1057 8.26172C18.1174 8.28516 18.1057 8.29688 18.0706 8.33203L13.6409 11.3555C13.2893 11.6016 13.219 11.9062 13.3596 12.293L15.1409 17.3555C15.1526 17.4023 15.1526 17.4141 15.1409 17.4375C15.1292 17.4609 15.1057 17.4375 15.0706 17.4141L10.8167 14.1445C10.5003 13.8867 10.137 13.8867 9.80885 14.1445L5.56666 17.4141C5.5315 17.4375 5.50807 17.4609 5.48463 17.4375Z" />
	</g>
</svg>
